<?xml version="1.0" standalone="no"?>
<!DOCTYPE svg PUBLIC "-//W3C//DTD SVG 20010904//EN"
 "http://www.w3.org/TR/2001/REC-SVG-20010904/DTD/svg10.dtd">
<svg version="1.0" xmlns="http://www.w3.org/2000/svg"
 width="256.000000pt" height="256.000000pt" viewBox="0 0 256.000000 256.000000"
 preserveAspectRatio="xMidYMid meet">
<metadata>
Created by potrace 1.14, written by Peter Selinger 2001-2017
</metadata>
<g transform="translate(0.000000,256.000000) scale(0.100000,-0.100000)"
fill="#000000" stroke="none">
<path d="M250 1920 c0 -57 1 -60 28 -66 94 -21 84 -11 119 -119 17 -55 109
-353 204 -662 l172 -563 127 0 126 0 129 455 c71 250 132 452 136 448 3 -5 59
-186 122 -403 64 -217 124 -419 132 -448 l16 -52 129 0 129 0 12 43 c39 149
351 1246 358 1263 7 16 25 24 70 33 l61 12 0 60 0 59 -235 0 -235 0 0 -59 0
-59 63 -11 c35 -6 73 -11 85 -11 12 0 22 -5 22 -11 0 -6 -51 -216 -114 -467
-63 -251 -120 -491 -127 -532 -20 -124 -24 -126 -48 -15 -13 55 -79 303 -147
550 -68 248 -124 455 -124 461 0 7 27 14 63 18 123 14 117 11 117 77 l0 59
-305 0 -305 0 0 -59 0 -59 50 -11 c28 -6 57 -11 65 -11 8 0 25 -35 42 -87 l30
-88 -107 -366 c-59 -201 -115 -409 -125 -462 -10 -53 -22 -97 -25 -97 -4 0
-15 39 -24 88 -10 48 -73 288 -142 534 -68 246 -124 453 -124 461 0 10 17 17
58 22 106 12 102 10 102 76 l0 59 -290 0 -290 0 0 -60z"/>
</g>
</svg>
